<mxfile host="app.diagrams.net" modified="2022-07-16T09:02:52.240Z" agent="5.0 (Windows NT 10.0; Win64; x64) AppleWebKit/537.36 (KHTML, like Gecko) Chrome/103.0.0.0 Safari/537.36" etag="l8rFBJzda9UrAI8HrW9m" version="20.1.1" type="github">
  <diagram id="KW7uYnnn35R4tykfN7sh" name="Page-1">
    <mxGraphModel dx="1422" dy="754" grid="1" gridSize="10" guides="1" tooltips="1" connect="1" arrows="1" fold="1" page="1" pageScale="1" pageWidth="827" pageHeight="1169" math="0" shadow="0">
      <root>
        <mxCell id="0" />
        <mxCell id="1" parent="0" />
        <mxCell id="-aqkzOK7RxVgGfTuyv6r-1" value="웹 실행" style="rounded=0;whiteSpace=wrap;html=1;" vertex="1" parent="1">
          <mxGeometry x="50" y="360" width="80" height="40" as="geometry" />
        </mxCell>
        <mxCell id="-aqkzOK7RxVgGfTuyv6r-6" value="밈 검색" style="rounded=0;whiteSpace=wrap;html=1;" vertex="1" parent="1">
          <mxGeometry x="307" y="230" width="80" height="40" as="geometry" />
        </mxCell>
        <mxCell id="-aqkzOK7RxVgGfTuyv6r-7" value="밈 등록" style="rounded=0;whiteSpace=wrap;html=1;" vertex="1" parent="1">
          <mxGeometry x="457" y="320" width="80" height="40" as="geometry" />
        </mxCell>
        <mxCell id="-aqkzOK7RxVgGfTuyv6r-8" value="" style="endArrow=none;dashed=1;html=1;dashPattern=1 3;strokeWidth=2;rounded=0;" edge="1" parent="1">
          <mxGeometry width="50" height="50" relative="1" as="geometry">
            <mxPoint x="170" y="300" as="sourcePoint" />
            <mxPoint x="257" y="300" as="targetPoint" />
          </mxGeometry>
        </mxCell>
        <mxCell id="-aqkzOK7RxVgGfTuyv6r-9" value="" style="endArrow=none;dashed=1;html=1;dashPattern=1 3;strokeWidth=2;rounded=0;" edge="1" parent="1">
          <mxGeometry width="50" height="50" relative="1" as="geometry">
            <mxPoint x="257" y="340" as="sourcePoint" />
            <mxPoint x="257" y="250" as="targetPoint" />
          </mxGeometry>
        </mxCell>
        <mxCell id="-aqkzOK7RxVgGfTuyv6r-10" value="" style="endArrow=none;dashed=1;html=1;dashPattern=1 3;strokeWidth=2;rounded=0;entryX=0;entryY=0.5;entryDx=0;entryDy=0;" edge="1" parent="1" target="-aqkzOK7RxVgGfTuyv6r-7">
          <mxGeometry width="50" height="50" relative="1" as="geometry">
            <mxPoint x="257" y="340" as="sourcePoint" />
            <mxPoint x="457" y="340" as="targetPoint" />
          </mxGeometry>
        </mxCell>
        <mxCell id="-aqkzOK7RxVgGfTuyv6r-13" value="" style="endArrow=none;dashed=1;html=1;dashPattern=1 3;strokeWidth=2;rounded=0;" edge="1" parent="1">
          <mxGeometry width="50" height="50" relative="1" as="geometry">
            <mxPoint x="257" y="250" as="sourcePoint" />
            <mxPoint x="307" y="250" as="targetPoint" />
          </mxGeometry>
        </mxCell>
        <mxCell id="-aqkzOK7RxVgGfTuyv6r-14" value="등록 유무" style="rhombus;whiteSpace=wrap;html=1;" vertex="1" parent="1">
          <mxGeometry x="451" y="225" width="86" height="50" as="geometry" />
        </mxCell>
        <mxCell id="-aqkzOK7RxVgGfTuyv6r-15" value="" style="endArrow=classic;html=1;rounded=0;entryX=0;entryY=0.5;entryDx=0;entryDy=0;" edge="1" parent="1" target="-aqkzOK7RxVgGfTuyv6r-14">
          <mxGeometry width="50" height="50" relative="1" as="geometry">
            <mxPoint x="387" y="250" as="sourcePoint" />
            <mxPoint x="447" y="250" as="targetPoint" />
          </mxGeometry>
        </mxCell>
        <mxCell id="-aqkzOK7RxVgGfTuyv6r-16" value="" style="endArrow=classic;html=1;rounded=0;" edge="1" parent="1">
          <mxGeometry width="50" height="50" relative="1" as="geometry">
            <mxPoint x="493.5" y="275" as="sourcePoint" />
            <mxPoint x="494" y="320" as="targetPoint" />
          </mxGeometry>
        </mxCell>
        <mxCell id="-aqkzOK7RxVgGfTuyv6r-17" value="" style="endArrow=classic;html=1;rounded=0;" edge="1" parent="1">
          <mxGeometry width="50" height="50" relative="1" as="geometry">
            <mxPoint x="537" y="249.5" as="sourcePoint" />
            <mxPoint x="587" y="249.5" as="targetPoint" />
          </mxGeometry>
        </mxCell>
        <mxCell id="-aqkzOK7RxVgGfTuyv6r-18" value="No" style="text;html=1;strokeColor=none;fillColor=none;align=center;verticalAlign=middle;whiteSpace=wrap;rounded=0;" vertex="1" parent="1">
          <mxGeometry x="477" y="280" width="60" height="30" as="geometry" />
        </mxCell>
        <mxCell id="-aqkzOK7RxVgGfTuyv6r-19" value="Yes" style="text;html=1;strokeColor=none;fillColor=none;align=center;verticalAlign=middle;whiteSpace=wrap;rounded=0;" vertex="1" parent="1">
          <mxGeometry x="531" y="225" width="60" height="30" as="geometry" />
        </mxCell>
        <mxCell id="-aqkzOK7RxVgGfTuyv6r-21" value="" style="endArrow=none;dashed=1;html=1;dashPattern=1 3;strokeWidth=2;rounded=0;" edge="1" parent="1">
          <mxGeometry width="50" height="50" relative="1" as="geometry">
            <mxPoint x="170" y="380" as="sourcePoint" />
            <mxPoint x="170" y="300" as="targetPoint" />
          </mxGeometry>
        </mxCell>
        <mxCell id="-aqkzOK7RxVgGfTuyv6r-22" value="" style="endArrow=none;dashed=1;html=1;dashPattern=1 3;strokeWidth=2;rounded=0;" edge="1" parent="1">
          <mxGeometry width="50" height="50" relative="1" as="geometry">
            <mxPoint x="130" y="380" as="sourcePoint" />
            <mxPoint x="170" y="380" as="targetPoint" />
          </mxGeometry>
        </mxCell>
        <mxCell id="-aqkzOK7RxVgGfTuyv6r-23" value="" style="endArrow=none;dashed=1;html=1;dashPattern=1 3;strokeWidth=2;rounded=0;" edge="1" parent="1">
          <mxGeometry width="50" height="50" relative="1" as="geometry">
            <mxPoint x="170" y="460" as="sourcePoint" />
            <mxPoint x="170" y="380" as="targetPoint" />
          </mxGeometry>
        </mxCell>
        <mxCell id="-aqkzOK7RxVgGfTuyv6r-24" value="" style="endArrow=none;dashed=1;html=1;dashPattern=1 3;strokeWidth=2;rounded=0;" edge="1" parent="1">
          <mxGeometry width="50" height="50" relative="1" as="geometry">
            <mxPoint x="170" y="460" as="sourcePoint" />
            <mxPoint x="257" y="460" as="targetPoint" />
          </mxGeometry>
        </mxCell>
        <mxCell id="-aqkzOK7RxVgGfTuyv6r-25" value="오늘의/이주의/이달의 밈" style="rounded=0;whiteSpace=wrap;html=1;" vertex="1" parent="1">
          <mxGeometry x="250" y="440" width="150" height="40" as="geometry" />
        </mxCell>
        <mxCell id="-aqkzOK7RxVgGfTuyv6r-26" value="태그/필터링 적용" style="rounded=0;whiteSpace=wrap;html=1;" vertex="1" parent="1">
          <mxGeometry x="590" y="230" width="80" height="40" as="geometry" />
        </mxCell>
        <mxCell id="-aqkzOK7RxVgGfTuyv6r-28" value="나이별&lt;br&gt;직업별&lt;br&gt;태그별&lt;br&gt;등등..&lt;br&gt;" style="text;html=1;strokeColor=none;fillColor=none;align=center;verticalAlign=middle;whiteSpace=wrap;rounded=0;" vertex="1" parent="1">
          <mxGeometry x="590" y="180" width="60" height="30" as="geometry" />
        </mxCell>
      </root>
    </mxGraphModel>
  </diagram>
</mxfile>
